# xmcd
#
# Track frame offsets:
# 150
# 14482
# 27113
# 55796
# 75845
# 96001
# 113717
# 148814
# 170405
# 189329
# 205286
# 228206
# 247957
# 268485
# 285201
# 294775
# 308862
# 324222
# 339217
#
# Disc length: 4790 seconds
#
# Revision: 0
# Processed by: cddbd v1.5.2PL0 Copyright (c) Steve Scherf et al.
# Submitted via: Audion 3.0.2 (http://www.panic.com/audion/)
#
DISCID=f412b413
DTITLE=rarios  - varios
DYEAR=1900
DGENRE=
TTITLE0=musica
TTITLE1=musica
TTITLE2=musica
TTITLE3=musica
TTITLE4=musica
TTITLE5=musica
TTITLE6=musica
TTITLE7=musica
TTITLE8=musica
TTITLE9=musica
TTITLE10=musica
TTITLE11=musica
TTITLE12=musica
TTITLE13=musica
TTITLE14=musica
TTITLE15=musica
TTITLE16=musica
TTITLE17=musica
TTITLE18=musica
EXTD=
EXTT0=
EXTT1=
EXTT2=
EXTT3=
EXTT4=
EXTT5=
EXTT6=
EXTT7=
EXTT8=
EXTT9=
EXTT10=
EXTT11=
EXTT12=
EXTT13=
EXTT14=
EXTT15=
EXTT16=
EXTT17=
EXTT18=
PLAYORDER=
